PathFileType	4	(X/Y/Z)	/mnt/data/output.trc
DataRate	CameraRate	NumFrames	NumMarkers	Units	OrigDataRate	OrigDataStartFrame	OrigNumFrames
100	100	4	17	mm	100	496	3966
Frame#	Time	nosex	nosey	nosez	lefteyex	lefteyey	lefteyez	righteyex	righteyey	righteyez	leftearx	lefteary	leftearz	rightearx	righteary	rightearz	leftshoulderx	leftshouldery	leftshoulderz	rightshoulderx	rightshouldery	rightshoulderz	leftelbowx	leftelbowy	leftelbowz	rightelbowx	rightelbowy	rightelbowz	leftwristx	leftwristy	leftwristz	rightwristx	rightwristy	rightwristz	lefthipx	lefthipy	lefthipz	righthipx	righthipy	righthipz	leftkneex	leftkneey	leftkneez	rightkneex	rightkneey	rightkneez	leftanklex	leftankley	leftanklez	rightanklex	rightankley	rightanklez
		1	1	1	2	2	2	3	3	3	4	4	4	5	5	5	6	6	6	7	7	7	8	8	8	9	9	9	10	10	10	11	11	11	12	12	12	13	13	13	14	14	14	15	15	15	16	16	16	17	17	17
496	4.96	-77.62565309558889	-573.0463414532261	3284.294531813422	-59.09059724235311	-604.6421889776469	3296.993740335281	-95.5250820595921	-605.49035381338	3300.9362174119424	6.921415255811516	-588.3417552076638	3397.6676024065746	-153.7305777081335	-592.1304487675976	3407.010192345863	85.3962022211044	-404.7733406959686	3450.02915404252	-236.6010909884176	-416.7974229265368	3455.8661482000343	134.94074395766955	-126.65073478027192	3430.4909052080816	-289.3478731273853	-152.67468335094358	3470.5968009718385	138.3295212748393	79.86410357212782	3398.222441409697	-306.39759825709245	63.46964674752306	3408.4876548644224	21.14916770374248	20.479411079330585	3466.967571831131	-189.21061846179995	12.995818449808276	3467.2444994535867	6.744126587893568	427.8216399850458	3533.01645504183	-158.3674319145541	430.3815276224339	3533.479239825764	16.770934082736392	791.4395605766007	3545.9529598259805	-143.95081567181614	793.9462652297148	3558.967770882789
497	4.97	-77.58998593157052	-573.0413793644112	3284.229336480648	-59.05529670432574	-604.6369755298595	3296.9287006662644	-95.4883652708642	-605.4853310814333	3300.8712395548014	6.944799741838021	-588.3310431141384	3397.6034776749407	-153.70637106984455	-592.1210232726081	3406.9491713168577	85.41787603191887	-404.762677114868	3449.96337456621	-236.5780198795236	-416.7893449903236	3455.806907482954	134.95994031610752	-126.64059034891328	3430.424807891807	-289.32671238906545	-152.66766076433908	3470.538314149028	138.3462415011935	79.871494053735	3398.1395963209648	-307.939977444574	63.10310639914857	3411.552324349393	21.16771080477197	20.487785027643856	3466.904418872972	-188.4726100212202	11.445543075718874	3470.007944553721	6.761282783722076	427.8280107336432	3532.9560080198435	-158.3495190100188	430.3868777002464	3533.4218357307304	16.78752558221651	791.4442774216363	3545.895808006651	-143.9335054496254	793.9499238552324	3558.913467487649
498	4.98	-77.69698167047123	-573.0221031628072	3284.1409486177045	-56.58120571008598	-604.6669762617298	3297.997926647874	-95.59250341002272	-605.4654066757505	3300.7821992081954	8.869720438254898	-588.4058845928364	3398.944053891568	-151.7347968517996	-590.9255369150685	3408.1585244416165	85.32847635340647	-404.7415008793089	3449.853870023592	-236.66146972168391	-416.77283349589226	3455.720160550667	134.66215657221022	-126.3059283382185	3427.566673420211	-289.4105998997807	-152.6542402005239	3470.4523305656053	137.93663907278437	81.40284472078532	3398.756982171903	-306.0896325038551	65.1636900656888	3408.443479584428	20.60783473472671	19.466278352412463	3464.031400582329	-188.76239425357875	11.78915392623676	3466.9624484445785	6.676015457786235	427.83866509227374	3532.8460248827832	-159.330528529606	431.6620866659942	3533.5296355869723	16.708336494043323	791.4511360648564	3545.787820688926	-144.0087467076107	793.9546112028394	3558.813409070887
499	4.99	-77.71724550615953	-572.9675778536557	3284.0518818350865	-56.03318806623499	-604.892261541213	3300.5649869465847	-97.86815658360008	-605.2360644868231	3299.036512727922	8.854369471717849	-588.3573972793411	3398.8443245520816	-151.68040335942575	-592.1688023973165	3407.905130144428	85.31501569335745	-404.6946916165664	3449.7469785582425	-236.67341125009264	-416.726789753552	3455.6298388786618	134.64539999440998	-126.26462754703944	3427.459785875503	-289.4211964895704	-152.61227881848149	3470.3629710599325	137.93251121208664	81.43339742433602	3398.7183749951	-306.4747440688589	63.552209691831486	3408.1492626857503	20.597826347384498	19.50690822700584	3463.922390441702	-189.0814682292348	12.724130454404818	3469.9404821616004	6.659549428428748	427.8716500886625	3532.735790392487	-159.34489090583517	431.69421264283767	3533.4270238172526	16.68524785928646	791.47659417575	3545.677060299891	-144.02956226655053	793.9799136622732	3558.7084161360845
